<svg width="1094" height="1590" viewBox="0 0 1094 1590" fill="none" xmlns="http://www.w3.org/2000/svg">
<line x1="53.9608" y1="144.758" x2="-494.703" y2="1319.22" stroke="#20F299"/>
<line x1="132.722" y1="181.552" x2="-415.942" y2="1356.02" stroke="#20F299"/>
<line x1="211.482" y1="218.346" x2="-337.181" y2="1392.81" stroke="#20F299"/>
<line x1="290.242" y1="255.139" x2="-258.422" y2="1429.61" stroke="#20F299"/>
<line x1="369.003" y1="291.933" x2="-179.661" y2="1466.4" stroke="#20F299"/>
<line x1="447.763" y1="328.726" x2="-100.901" y2="1503.19" stroke="#20F299"/>
<line x1="526.523" y1="365.52" x2="-22.1403" y2="1539.99" stroke="#20F299"/>
<line x1="605.283" y1="402.314" x2="56.6195" y2="1576.78" stroke="#20F299"/>
<line x1="684.044" y1="439.108" x2="135.38" y2="1613.57" stroke="#20F299"/>
<line x1="762.805" y1="475.901" x2="214.141" y2="1650.37" stroke="#20F299"/>
<line x1="841.564" y1="512.695" x2="292.901" y2="1687.16" stroke="#20F299"/>
<line x1="920.549" y1="549.593" x2="325.456" y2="1823.45" stroke="#20F299"/>
<line x1="999.372" y1="586.416" x2="404.279" y2="1860.27" stroke="#20F299"/>
<line x1="1052.21" y1="717.853" x2="-296.844" y2="87.6299" stroke="#20F299"/>
<line x1="1012.61" y1="802.608" x2="-336.439" y2="172.385" stroke="#20F299"/>
<line x1="973.019" y1="887.364" x2="-376.033" y2="257.141" stroke="#20F299"/>
<line x1="933.424" y1="972.119" x2="-415.627" y2="341.896" stroke="#20F299"/>
<line x1="893.83" y1="1056.87" x2="-455.221" y2="426.651" stroke="#20F299"/>
<line x1="854.236" y1="1141.63" x2="-494.816" y2="511.407" stroke="#20F299"/>
<line x1="814.642" y1="1226.38" x2="-534.41" y2="596.162" stroke="#20F299"/>
<line x1="775.047" y1="1311.14" x2="-574.004" y2="680.917" stroke="#20F299"/>
<line x1="735.452" y1="1395.9" x2="-613.599" y2="765.672" stroke="#20F299"/>
<line x1="695.859" y1="1480.65" x2="-653.193" y2="850.428" stroke="#20F299"/>
<line x1="656.265" y1="1565.41" x2="-692.787" y2="935.183" stroke="#20F299"/>
<line x1="616.67" y1="1650.16" x2="-732.381" y2="1019.94" stroke="#20F299"/>
<line x1="577.075" y1="1734.92" x2="-771.976" y2="1104.69" stroke="#20F299"/>
<line x1="497.887" y1="1904.43" x2="-851.164" y2="1274.2" stroke="#20F299"/>
</svg>
