<svg width="141" height="40" viewBox="0 0 141 40" fill="none" xmlns="http://www.w3.org/2000/svg">
<path d="M2.86743 37.7344V1.62952H8.84754V37.3018L2.86743 37.7344ZM9.98084 38.2172C8.78684 38.2172 7.60296 38.177 6.43932 38.0864C5.26556 37.9959 4.08167 37.8853 2.86743 37.7344L5.09354 31.9801C5.95362 32.3825 6.89466 32.6139 7.92676 32.6944C8.95886 32.7648 9.98083 32.805 11.0028 32.805C13.8563 32.805 16.0621 31.9801 17.6204 30.3303C19.1787 28.6805 19.9578 26.3365 19.9578 23.2985C19.9578 21.3368 19.5126 19.8278 18.612 18.7615C17.7115 17.6951 16.4365 17.1619 14.7771 17.1619C10.8207 17.1619 8.84754 19.2443 8.84754 23.3991L7.34999 16.8501H9.45467C9.80882 13.4499 11.8629 11.7497 15.627 11.7497C18.9358 11.7497 21.4959 12.7557 23.297 14.7576C25.0981 16.7595 26.0088 19.6165 26.0088 23.2985C26.0088 28.0367 24.6124 31.6984 21.8196 34.314C19.0269 36.9094 15.0806 38.2172 9.98084 38.2172Z" fill="#20F299"/>
<path d="M29.9146 37.7344V32.5837H47.5412V37.7344H29.9146ZM30.8758 17.3732V12.2226H40.104L40.5897 17.3732H30.8758ZM35.4494 37.7344V12.2226H40.4379L41.4093 19.5361V37.7344H35.4494ZM41.4093 26.7591L39.9118 18.2887H42.0468C42.32 13.9227 44.5765 11.7397 48.806 11.7397C51.3256 11.7397 53.2077 12.5747 54.4725 14.2446C55.7272 15.9145 56.3647 18.4295 56.3647 21.7995H50.4048C50.4048 20.1497 50.1215 18.9627 49.5649 18.2384C49.0084 17.514 48.118 17.1519 46.8936 17.1519C45.052 17.1519 43.686 17.9869 42.7753 19.6568C41.8647 21.3267 41.4093 23.6908 41.4093 26.7591Z" fill="#20F299"/>
<path d="M60.8979 37.7344V32.3423H70.9964V37.7344H60.8979ZM62.355 17.6147V12.2226H76.4705V17.6147H62.355ZM73.2427 8.54066C72.0993 8.54066 71.1481 8.16844 70.4095 7.43407C69.6708 6.6997 69.2964 5.75407 69.2964 4.61731C69.2964 3.48055 69.6708 2.53492 70.4095 1.80055C71.1481 1.06618 72.0993 0.69397 73.2427 0.69397C74.3861 0.69397 75.3373 1.06618 76.0759 1.80055C76.8146 2.53492 77.189 3.48055 77.189 4.61731C77.189 5.75407 76.8146 6.6997 76.0759 7.43407C75.3373 8.16844 74.3861 8.54066 73.2427 8.54066ZM70.5107 37.7344V13.6611H76.4705V37.7344H70.5107ZM75.9848 37.7344V32.3423H84.1911V37.7344H75.9848Z" fill="#20F299"/>
<path d="M94.8357 28.4189V29.4249C95.2202 29.4752 95.5642 29.5356 95.9285 29.5959V28.4189H94.8357Z" fill="#20F299"/>
<path d="M95.9285 28.4189V29.5959C98.0331 29.938 99.7735 30.4108 101.119 31.0345C102.688 31.7689 103.831 32.7849 104.519 34.0726C105.066 35.0786 105.389 36.2958 105.501 37.7344H111.127C111.117 33.5696 109.771 30.2901 107.089 27.9059C106.543 27.4129 105.916 26.9703 105.258 26.5579C103.224 27.7952 100.796 28.4189 97.9421 28.4189H95.9285Z" fill="#20F299"/>
<path d="M95.9285 23.4493C95.5642 23.399 95.2101 23.3387 94.8357 23.2884V28.4189H95.9285V23.4493Z" fill="#20F299"/>
<path d="M93.824 28.4187H94.846V23.2882C95.2203 23.3385 95.5745 23.3988 95.9388 23.4491V22.8757H93.8341V28.4187H93.824Z" fill="#20F299"/>
<path d="M93.1426 28.6833H94.1646V23.0237C94.5389 23.0791 94.8931 23.1457 95.2574 23.2012V22.5687H93.1527V28.6833H93.1426Z" fill="#20F299"/>
<path d="M95.9285 29.5959C95.5642 29.5356 95.2202 29.4752 94.8357 29.4249V28.4189H93.8137V22.886H95.9184V1.62952H89.9382V37.7344H95.9184V29.5959H95.9285Z" fill="#20F299"/>
<path d="M105.516 26.1356C104.754 25.6526 103.921 25.2217 103.021 24.8386L103.093 24.8122L101.783 24.3464C100.077 23.7399 98.1423 23.2805 95.9934 22.955L95.4185 22.8679V23.4493V28.4189V28.9189H95.9185H97.9321C100.861 28.9189 103.393 28.2677 105.507 26.9854L106.196 26.5674L105.516 26.1356Z" fill="#20F299" stroke="#20F299"/>
<path d="M101.625 24.8175C102.991 25.3003 104.195 25.8838 105.258 26.5478C106.219 25.9643 107.099 25.25 107.879 24.395C110.287 21.719 111.835 17.6548 112.513 12.2125H106.341C105.997 14.8079 105.46 16.8903 104.722 18.4596C103.983 20.0189 102.961 21.1557 101.666 21.8398C100.371 22.5339 98.7313 22.8759 96.7278 22.8759H95.9285V23.4493C98.0534 23.7712 99.9456 24.2239 101.625 24.8175Z" fill="#20F299"/>
<path d="M8.8475 1.62952H0.0341797V6.78016H8.8475V1.62952Z" fill="#20F299"/>
<path d="M127.357 39.0723C123.552 39.0723 120.355 37.8048 117.845 35.3099C115.336 32.8151 114.061 29.6261 114.061 25.8537C114.061 22.0712 115.336 18.8922 117.845 16.3974C120.355 13.9026 123.562 12.635 127.357 12.635C131.151 12.635 134.359 13.9026 136.868 16.3974C139.378 18.8922 140.653 22.0712 140.653 25.8537C140.653 29.6362 139.378 32.8151 136.868 35.3099C134.359 37.8048 131.151 39.0723 127.357 39.0723ZM127.357 18.6709C125.192 18.6709 123.481 19.3248 122.136 20.6628C120.79 22.0007 120.132 23.7009 120.132 25.8537C120.132 28.0065 120.79 29.7066 122.136 31.0446C123.481 32.3825 125.192 33.0364 127.357 33.0364C129.522 33.0364 131.222 32.3825 132.578 31.0446C133.924 29.7066 134.582 28.0065 134.582 25.8537C134.582 23.7009 133.924 22.0108 132.578 20.6628C131.222 19.3248 129.522 18.6709 127.357 18.6709Z" fill="#20F299"/>
</svg>
